<svg xmlns="http://www.w3.org/2000/svg" width="48" height="48" viewBox="0 0 48 48">
  <g>
    <path fill="#4285F4" d="M24 9.5c3.54 0 6.36 1.22 8.29 2.97l6.19-6.19C34.19 2.99 29.51 0.5 24 0.5 14.62 0.5 6.5 7.62 3.5 16.5l7.62 5.93C12.62 15.13 17.77 9.5 24 9.5z"/>
    <path fill="#34A853" d="M46.5 24c0-1.91-.16-3.75-.47-5.5H24v10.5h12.62c-.54 2.91-2.17 5.38-4.62 7.04l7.19 5.59C43.5 37.38 46.5 31.13 46.5 24z"/>
    <path fill="#FBBC05" d="M10.12 28.43A14.5 14.5 0 0 1 9.5 24c0-1.54.26-3.03.62-4.43l-7.62-5.93A23.48 23.48 0 0 0 0.5 24c0 3.91.94 7.61 2.62 10.93l7-6.5z"/>
    <path fill="#EA4335" d="M24 46.5c6.51 0 12.01-2.16 16.01-5.93l-7.19-5.59c-2.01 1.35-4.59 2.15-8.82 2.15-6.23 0-11.38-5.63-12.88-13.43l-7 6.5C6.5 40.38 14.62 46.5 24 46.5z"/>
    <path fill="none" d="M0 0h48v48H0z"/>
  </g>
</svg>