<svg role="img" viewBox="0 0 24 24" xmlns="http://www.w3.org/2000/svg" id="Kasasmart--Streamline-Simple-Icons">
  <desc>
    Kasasmart Streamline Icon: https://streamlinehq.com
  </desc>
  <title>Kasa Smart</title>
  <path d="M12 0c-0.5 0 -1 0.25 -1.5 0.75L7.97 3.28l8.83 8.83c1 1 1.5 2 1.5 3V24h3.3c1.6 0 2.4 -0.8 2.4 -2.4v-8.85c0 -1 -0.5 -2 -1.5 -3l-9 -9C13 0.25 12.5 0 12 0zM6.9 4.34 2.89 8.37 9.6 15.1c1 1 1.5 2 1.5 3V24h5.7v-8.89c-0.03 -0.83 -0.6 -1.46 -1.06 -1.94L6.91 4.34zm-5.08 5.1 -0.32 0.31c-1 1 -1.5 2 -1.5 3v8.85C0 23.2 0.8 24 2.4 24h7.2v-5.9c-0.03 -0.8 -0.56 -1.42 -1.06 -1.95Z" fill="currentColor" stroke-width="1"></path>
</svg>