<svg role="img" viewBox="0 0 22 22" xmlns="http://www.w3.org/2000/svg" id="Opsgenie--Streamline-Simple-Icons" height="22" width="22">
  <desc>
    Opsgenie Streamline Icon: https://streamlinehq.com
  </desc>
  <title>Opsgenie</title>
  <path d="M11.001833333333334 0a5.489 5.489 0 1 1 0 10.977083333333333 5.489 5.489 0 0 1 0 -10.977083333333333zm8.91275 11.9405h-0.027499999999999997l-4.14975 -2.0551666666666666a0.6150833333333333 0.6150833333333333 0 0 0 -0.8029999999999999 0.24566666666666667 20.540666666666667 20.540666666666667 0 0 1 -3.9471666666666665 4.7822499999999994 20.539749999999998 20.539749999999998 0 0 1 -3.928833333333333 -4.766666666666667 0.6150833333333333 0.6150833333333333 0 0 0 -0.8029999999999999 -0.24658333333333335l-4.1570833333333335 2.0404999999999998h-0.027499999999999997a0.6150833333333333 0.6150833333333333 0 0 0 -0.22733333333333333 0.8268333333333333 26.445833333333333 26.445833333333333 0 0 0 4.170833333333333 5.438583333333333l-0.0018333333333333333 0.0009166666666666666c0.022 0.02291666666666667 0.04583333333333334 0.044 0.06874999999999999 0.06599999999999999 0.3070833333333333 0.3070833333333333 0.6196666666666667 0.6086666666666667 0.9414166666666666 0.89925 0.07425 0.06783333333333333 0.15125 0.13199999999999998 0.22641666666666665 0.19891666666666666 0.28875 0.25483333333333336 0.5793333333333334 0.50875 0.8799999999999999 0.7516666666666666 0.13199999999999998 0.10725 0.27041666666666664 0.20808333333333334 0.40425 0.3125833333333333 0.2539166666666667 0.19799999999999998 0.506 0.3978333333333333 0.76725 0.58575 0.4033333333333333 0.2915 0.814 0.5729166666666666 1.2338333333333333 0.8405833333333333a0.8827499999999999 0.8827499999999999 0 0 0 0.9230833333333331 0.015583333333333334c0.44641666666666663 -0.286 0.8818333333333332 -0.5866666666666667 1.309 -0.8983333333333333 0.06233333333333334 -0.04583333333333334 0.121 -0.09441666666666666 0.18333333333333335 -0.14024999999999999 0.32816666666666666 -0.24383333333333335 0.6535833333333333 -0.49225 0.9716666666666667 -0.7516666666666666 0.2145 -0.17416666666666666 0.4216666666666667 -0.3575 0.6306666666666666 -0.5389999999999999 0.15583333333333335 -0.13474999999999998 0.3116666666666667 -0.26675 0.4638333333333333 -0.4051666666666667 0.27041666666666664 -0.24566666666666667 0.5316666666666666 -0.4995833333333333 0.7919999999999999 -0.75625 0.05591666666666666 -0.05499999999999999 0.11641666666666667 -0.10816666666666666 0.17233333333333334 -0.16408333333333333l-0.0036666666666666666 -0.0018333333333333333a26.447666666666667 26.447666666666667 0 0 0 4.184583333333333 -5.45325 0.6150833333333333 0.6150833333333333 0 0 0 -0.24658333333333335 -0.8268333333333333z" fill="currentColor" stroke-width="0.9167"></path>
</svg>